<svg xmlns="http://www.w3.org/2000/svg" width="200" height="47.051" viewBox="0 0 200 47.051"><defs><style>.a{fill:#fff;}</style></defs><g transform="translate(-58 -52)"><path class="a" d="M30.305.33H0V28.111H8.843V6.643H30.305Z" transform="translate(58 51.905)"/><rect class="a" width="15.156" height="6.569" transform="translate(70.625 62.535)"/><path class="a" d="M99.48,12.16" transform="translate(27.515 48.484)"/><path class="a" d="M99.48,14.666l27.547,14.36V19.955l-18.305-9.547L127.425.014,114.018,0,99.48,8.644Z" transform="translate(27.243 52)"/><path class="a" d="M260.72.61,275.9,28.164h-9.59L256.227,9.859l-10.983,18.7-.014-13.414L254.365.61Z" transform="translate(-17.898 51.824)"/><path class="a" d="M72.808.33V21.8H57.148V.33H48.56V19.972c0,8.118,9.789,8.14,9.846,8.14H81.389V.33Z" transform="translate(42.958 51.905)"/><path class="a" d="M168.458.33V21.8H152.8V.33H144.21V19.972c0,8.118,9.789,8.14,9.846,8.14h22.983V.33Z" transform="translate(13.331 51.905)"/><path class="a" d="M227.319,20.325V8.837h0c0-8.118-9.789-8.147-9.846-8.147h-20.2V7h21.469V22.159H197.27v6.313h20.2c.057,0,9.839-.021,9.846-8.147Z" transform="translate(-3.04 51.801)"/><g transform="translate(126.019 85.977)"><path class="a" d="M113.665,63.271h-2.652V57.143c0-1.5-.661-1.99-1.443-1.99-1.329,0-1.806.874-1.806,2.069v6.05h-2.652V57.2c0-.853,0-2.047-1.592-2.047-1.251,0-1.649.874-1.649,1.976v6.149H99.22V53.183h2.538v1.472h.036a3,3,0,0,1,2.865-1.735,2.873,2.873,0,0,1,2.8,1.607,3.15,3.15,0,0,1,2.694-1.607,3.212,3.212,0,0,1,3.5,3.362v6.988Z" transform="translate(-99.22 -50.453)"/><path class="a" d="M130.481,58.223c0,1.294-.377,3.078-2.424,3.078s-2.424-1.784-2.424-3.078.377-3.078,2.424-3.078S130.481,56.937,130.481,58.223Zm2.723,0c0-3.64-2.438-5.3-5.147-5.3s-5.147,1.656-5.147,5.3,2.438,5.3,5.147,5.3S133.2,61.87,133.2,58.223Z" transform="translate(-106.069 -50.453)"/><path class="a" d="M143.384,52.18h1.649v1.891h-1.649v5.481c0,.59.021.818,1.095.818.171,0,.363-.021.547-.036v2c-.419.021-.832.036-1.251.036h-.341c-2.289,0-2.708-.867-2.708-2.175V54.071H139.36V52.18h1.365V49.45h2.652v2.73Z" transform="translate(-110.825 -49.45)"/><path class="a" d="M157.231,58.223c0,1.294-.377,3.078-2.424,3.078s-2.424-1.784-2.424-3.078.377-3.078,2.424-3.078S157.231,56.937,157.231,58.223Zm2.73,0a4.892,4.892,0,0,0-5.154-5.3c-2.708,0-5.147,1.656-5.147,5.3s2.438,5.3,5.147,5.3A4.892,4.892,0,0,0,159.961,58.223Z" transform="translate(-113.803 -50.453)"/><path class="a" d="M167.537,53.186h2.538v1.756h.036c.547-1.031,1.152-2.012,2.765-2.012.171,0,.341.021.512.036v2.7a5.3,5.3,0,0,0-.761-.036,2.141,2.141,0,0,0-2.445,2.4V63.28H167.53V53.186Z" transform="translate(-118.969 -50.456)"/><path class="a" d="M183.774,56.251c-.114-.64-.341-1.322-1.791-1.322s-1.628.547-1.628.981c0,1.585,6.3.434,6.3,4.144,0,2.943-2.844,3.469-4.415,3.469-2.289,0-4.77-.8-4.848-3.49h2.723c0,.853.533,1.479,2.2,1.479,1.365,0,1.685-.661,1.685-1.045,0-1.685-6.249-.419-6.249-4.187,0-1.472.931-3.37,4.081-3.37,1.969,0,4.329.491,4.535,3.327h-2.588Z" transform="translate(-121.82 -50.45)"/></g></g></svg>